<?xml version="1.0" encoding="utf-8"?>
<!-- Generator: Adobe Illustrator 27.8.0, SVG Export Plug-In . SVG Version: 6.00 Build 0)  -->
<svg version="1.1" id="Livello_1" xmlns="http://www.w3.org/2000/svg" xmlns:xlink="http://www.w3.org/1999/xlink" x="0px" y="0px"
	 viewBox="0 0 15.4 15.6" style="enable-background:new 0 0 15.4 15.6;" xml:space="preserve">
<style type="text/css">
	.st0{fill:none;stroke:#60614E;stroke-width:0.6;stroke-linecap:round;stroke-linejoin:round;stroke-miterlimit:10;}
	.st1{fill:#60614E;}
</style>
<g>
	<path class="st1" d="M3.4,10.8l2.5-3.9L3.6,3h1.9l1.3,2.5C6.9,5.7,6.9,5.9,7,6h0c0.1-0.2,0.2-0.4,0.3-0.6L8.6,3h1.7L7.9,6.9l2.4,4
		H8.6L7.1,8.1C7,7.9,7,7.8,6.9,7.7h0c0,0.1-0.1,0.2-0.2,0.4l-1.5,2.8L3.4,10.8L3.4,10.8z"/>
	<path class="st0" d="M7.7,13.5H2.3c-1.1,0-2-0.9-2-2V2.3c0-1.1,0.9-2,2-2h9.2c1.1,0,2,0.9,2,2v5.4"/>
	<g>
		<line class="st0" x1="12.9" y1="15.6" x2="12.9" y2="10.5"/>
		<line class="st0" x1="15.1" y1="12.7" x2="12.9" y2="10.5"/>
		<line class="st0" x1="10.7" y1="12.7" x2="12.9" y2="10.5"/>
	</g>
</g>
</svg>
