<?xml version="1.0" encoding="utf-8"?>
<!-- Generator: Adobe Illustrator 27.8.0, SVG Export Plug-In . SVG Version: 6.00 Build 0)  -->
<svg version="1.1" id="Livello_1" xmlns="http://www.w3.org/2000/svg" xmlns:xlink="http://www.w3.org/1999/xlink" x="0px" y="0px"
	 viewBox="0 0 17.6 14.9" style="enable-background:new 0 0 17.6 14.9;" xml:space="preserve">
<style type="text/css">
	.st0{fill:none;stroke:#60614E;stroke-width:0.6;stroke-linecap:round;stroke-linejoin:round;stroke-miterlimit:10;}
	.st1{fill:#60614E;}
</style>
<g>
	<path class="st0" d="M12.1,14.6H5.4c-0.9,0-1.6-0.5-1.9-1.2l-2-6.8h14.6l-2,6.8C13.8,14.1,13,14.6,12.1,14.6z"/>
	<path class="st0" d="M0.8,4.8h15.9c0.3,0,0.5,0.2,0.5,0.5v0.8c0,0.3-0.2,0.5-0.5,0.5H0.8c-0.3,0-0.5-0.2-0.5-0.5V5.3
		C0.3,5,0.5,4.8,0.8,4.8z"/>
	<line class="st0" x1="3.7" y1="4.8" x2="7.7" y2="0.3"/>
	<line class="st0" x1="13.8" y1="4.8" x2="9.9" y2="0.3"/>
	<line class="st0" x1="8.8" y1="8.4" x2="8.8" y2="12.6"/>
	<line class="st0" x1="12.1" y1="8.4" x2="11" y2="12.6"/>
	<line class="st0" x1="5.4" y1="8.4" x2="6.5" y2="12.6"/>
</g>
</svg>
